<?xml version="1.0" encoding="utf-8"?>
<!-- Generator: Adobe Illustrator 27.1.1, SVG Export Plug-In . SVG Version: 6.00 Build 0)  -->
<svg version="1.1" id="Ebene_1" xmlns="http://www.w3.org/2000/svg" xmlns:xlink="http://www.w3.org/1999/xlink" x="0px" y="0px"
	 viewBox="0 0 16 16" style="enable-background:new 0 0 16 16;" xml:space="preserve">
<style type="text/css">
	.st0{fill:#FFFFFF;filter:url(#Adobe_OpacityMaskFilter);}
	.st1{mask:url(#path-1-inside-1_1588_6259_00000173119138975477980210000007733088185808470454_);}
	.st2{fill:none;stroke:#000000;stroke-width:1.25;}
	.st3{fill:none;stroke:#000000;}
</style>
<defs>
	<filter id="Adobe_OpacityMaskFilter" filterUnits="userSpaceOnUse" x="-1.6" y="-2" width="18.5" height="20">
		<feColorMatrix  type="matrix" values="1 0 0 0 0  0 1 0 0 0  0 0 1 0 0  0 0 0 1 0"/>
	</filter>
</defs>
<mask maskUnits="userSpaceOnUse" x="-1.6" y="-2" width="18.5" height="20" id="path-1-inside-1_1588_6259_00000173119138975477980210000007733088185808470454_">
	<path class="st0" d="M0.9,3.3c0-1.8,1.5-3.3,3.3-3.3h10.7v15.9H4.1c-1.8,0-3.3-1.5-3.3-3.3V3.3z"/>
</mask>
<path class="st1" d="M-1.6,3.3C-1.6,0.4,0.8-2,3.7-2h13.2l-4.1,4.1H4.1c-0.5,0-0.8,0.5-0.8,1.2H-1.6z M16.9,18H3.7
	c-2.9,0-5.3-2.4-5.3-5.3h4.9c0,0.7,0.4,1.2,0.8,1.2h8.7L16.9,18z M3.7,18c-2.9,0-5.3-2.4-5.3-5.3V3.3C-1.6,0.4,0.8-2,3.7-2l0.4,4.1
	c-0.5,0-0.8,0.5-0.8,1.2v9.4c0,0.7,0.4,1.2,0.8,1.2L3.7,18z M16.9-2v20l-4.1-4.1V2.1L16.9-2z"/>
<line class="st2" x1="5" y1="5.3" x2="9.9" y2="5.3"/>
<line class="st3" x1="5" y1="8.8" x2="7.8" y2="8.8"/>
</svg>
