<svg width="16" height="16" viewBox="0 0 16 16" fill="none" xmlns="http://www.w3.org/2000/svg">
<mask id="path-1-inside-1_1588_6259" fill="white">
<path d="M3.49915 5.14087C3.49915 4.0363 4.39458 3.14087 5.49915 3.14087H12.0494V12.8592H5.49914C4.39457 12.8592 3.49915 11.9638 3.49915 10.8592V5.14087Z"/>
</mask>
<path d="M1.99915 5.14087C1.99915 3.34594 3.45422 1.89087 5.24915 1.89087H13.2994L10.7994 4.39087H5.49915C5.223 4.39087 4.99915 4.72666 4.99915 5.14087H1.99915ZM13.2994 14.1092H5.24915C3.45422 14.1092 1.99915 12.6541 1.99915 10.8592H4.99915C4.99915 11.2734 5.223 11.6092 5.49915 11.6092H10.7994L13.2994 14.1092ZM5.24915 14.1092C3.45422 14.1092 1.99915 12.6541 1.99915 10.8592V5.14087C1.99915 3.34594 3.45422 1.89087 5.24915 1.89087L5.49915 4.39087C5.223 4.39087 4.99915 4.72666 4.99915 5.14087V10.8592C4.99915 11.2734 5.223 11.6092 5.49915 11.6092L5.24915 14.1092ZM13.2994 1.89087V14.1092L10.7994 11.6092V4.39087L13.2994 1.89087Z" fill="#19181f" mask="url(#path-1-inside-1_1588_6259)"/>
<line x1="6" y1="6.375" x2="9" y2="6.375" stroke="#19181f" stroke-width="1.25"/>
<line x1="6" y1="8.5" x2="7.75195" y2="8.5" stroke="#19181f"/>
</svg>