<?xml version="1.0" standalone="no"?>
<!DOCTYPE svg PUBLIC "-//W3C//DTD SVG 20010904//EN"
 "http://www.w3.org/TR/2001/REC-SVG-20010904/DTD/svg10.dtd">
<svg version="1.0" xmlns="http://www.w3.org/2000/svg"
 width="700.000000pt" height="700.000000pt" viewBox="0 0 700.000000 700.000000"
 preserveAspectRatio="xMidYMid meet">
<metadata>
Created by potrace 1.14, written by Peter Selinger 2001-2017
</metadata>
<g transform="translate(0.000000,700.000000) scale(0.100000,-0.100000)"
fill="#000000" stroke="none">
<path d="M3645 6252 c-6 -5 -39 -21 -75 -37 -36 -15 -112 -49 -169 -76 -57
-27 -105 -49 -107 -49 -2 0 -45 -19 -96 -43 -51 -24 -236 -108 -410 -187
l-318 -144 -2 -245 -3 -245 -170 -52 c-93 -29 -219 -68 -280 -85 -60 -18 -113
-35 -118 -39 -6 -5 49 -288 69 -352 5 -16 26 -18 251 -18 135 0 247 -1 249 -3
2 -1 5 -644 7 -1427 1 -784 6 -1436 9 -1450 4 -14 12 -59 18 -100 35 -220 113
-400 233 -537 77 -88 258 -198 413 -252 76 -27 222 -59 311 -68 127 -15 371
-9 460 10 229 49 480 164 768 352 109 71 350 248 432 317 l42 35 -25 36 c-13
20 -24 39 -24 42 0 3 -17 32 -38 63 -21 31 -52 83 -70 114 -18 32 -37 60 -42
63 -5 3 -37 -12 -72 -33 -176 -107 -362 -191 -508 -229 -188 -49 -422 -26
-537 53 -60 41 -92 86 -120 169 -46 133 -46 139 -48 1513 l-2 1303 156 -6 c86
-3 219 -7 296 -10 134 -5 229 -9 503 -20 94 -4 122 -2 122 7 0 7 7 49 15 93
19 110 23 131 35 205 5 36 12 79 15 95 3 17 12 71 21 120 8 50 17 98 18 107 4
17 -19 18 -163 3 -24 -2 -87 -7 -140 -10 -53 -4 -112 -8 -131 -10 -19 -2 -78
-6 -130 -10 -52 -4 -111 -8 -130 -10 -19 -2 -78 -6 -130 -10 -52 -3 -111 -8
-130 -10 -19 -2 -78 -7 -131 -10 l-95 -6 1 533 c0 293 -1 539 -3 546 -5 14
-14 15 -27 4z"/>
</g>
</svg>
