<svg width="550" height="356" viewBox="0 0 550 356" fill="none" xmlns="http://www.w3.org/2000/svg">
<rect width="550" height="356" fill="white"/>
<path d="M19.7071 18.2929C19.3166 17.9024 18.6834 17.9024 18.2929 18.2929L11.9289 24.6569C11.5384 25.0474 11.5384 25.6805 11.9289 26.0711C12.3194 26.4616 12.9526 26.4616 13.3431 26.0711L19 20.4142L24.6568 26.0711C25.0474 26.4616 25.6805 26.4616 26.0711 26.0711C26.4616 25.6805 26.4616 25.0474 26.0711 24.6569L19.7071 18.2929ZM20 336L20 19L18 19L18 336L20 336Z" fill="black"/>
<path d="M525.707 336.707C526.098 336.317 526.098 335.683 525.707 335.293L519.343 328.929C518.953 328.538 518.319 328.538 517.929 328.929C517.538 329.319 517.538 329.953 517.929 330.343L523.586 336L517.929 341.657C517.538 342.047 517.538 342.681 517.929 343.071C518.319 343.462 518.953 343.462 519.343 343.071L525.707 336.707ZM19 337H525V335H19V337Z" fill="black"/>
<text fill="black" font-family="Stupid, Inria Serif" font-size="24" letter-spacing="0em"><tspan x="34.0469" y="43.9274">Height</tspan></text>
<text fill="black" font-family="Stupid, Inria Serif" font-size="24" font-style="italic" letter-spacing="0em"><tspan x="34.0469" y="72.9274">Height</tspan></text>
<text fill="black" font-family="Stupid, Inria Serif" font-size="24" font-weight="bold" letter-spacing="0em"><tspan x="34.0469" y="101.927">Height</tspan></text>
<text fill="black" font-family="Stupid, Inria Serif" font-size="24" font-style="italic" font-weight="bold" letter-spacing="0em"><tspan x="34.0469" y="130.927">Height</tspan></text>
<text fill="black" font-size="22" font-weight="bold" letter-spacing="0em"><tspan x="99.0469" y="278.783">Without family</tspan></text>
<text fill="black" font-family="Inter" font-size="22" font-style="italic" letter-spacing="0em"><tspan x="58.0469" y="315">With non-existing family</tspan></text>
<text fill="black" font-family="Roboto" font-size="24" letter-spacing="0em" text-decoration="underline"><tspan x="466" y="310.703">Time</tspan></text>
<path d="M20 335C20 335 59.8833 265.479 102 241C143.386 216.945 162.368 211.763 210 207C270 201 321.161 208.851 374 178C398.284 163.821 431 134 431 134L518 65" stroke="#2B80FF" stroke-width="2"/>
<text transform="translate(428.859 89.5114) rotate(-38.8045)" fill="#2B80FF" xml:space="preserve" style="white-space: pre" font-family="DejaVu Sans Mono" font-size="24" font-weight="bold" letter-spacing="0em"><tspan x="0" y="22.3086">Curve</tspan></text>
</svg>
