<svg width="16" height="16" viewBox="0 0 16 16" fill="none" xmlns="http://www.w3.org/2000/svg">
<path d="M6.79895 2.625H12.0717C12.2788 2.625 12.4467 2.79289 12.4467 3V10C12.4467 10.2071 12.2788 10.375 12.0717 10.375H6.79895C6.59184 10.375 6.42395 10.2071 6.42395 10V3C6.42395 2.79289 6.59184 2.625 6.79895 2.625Z" stroke="currentColor" stroke-width="1.25"/>
<mask id="path-2-inside-1_1347_6182" fill="white">
<path d="M4.88985 5H4.07169C3.5194 5 3.07169 5.44772 3.07169 6V13C3.07169 13.5523 3.5194 14 4.07169 14H9.34441C9.8967 14 10.3444 13.5523 10.3444 13V12H9.09441V12.75H4.32169V6.25H4.88985V5Z"/>
</mask>
<path d="M4.88985 5H6.13985V3.75H4.88985V5ZM10.3444 12H11.5944V10.75H10.3444V12ZM9.09441 12V10.75H7.84441V12H9.09441ZM9.09441 12.75V14H10.3444V12.75H9.09441ZM4.32169 12.75H3.07169V14H4.32169V12.75ZM4.32169 6.25V5H3.07169V6.25H4.32169ZM4.88985 6.25V7.5H6.13985V6.25H4.88985ZM4.88985 3.75H4.07169V6.25H4.88985V3.75ZM4.07169 3.75C2.82905 3.75 1.82169 4.75736 1.82169 6H4.32169C4.32169 6.13807 4.20976 6.25 4.07169 6.25V3.75ZM1.82169 6V13H4.32169V6H1.82169ZM1.82169 13C1.82169 14.2426 2.82905 15.25 4.07169 15.25V12.75C4.20976 12.75 4.32169 12.8619 4.32169 13H1.82169ZM4.07169 15.25H9.34441V12.75H4.07169V15.25ZM9.34441 15.25C10.5871 15.25 11.5944 14.2426 11.5944 13H9.09441C9.09441 12.8619 9.20634 12.75 9.34441 12.75V15.25ZM11.5944 13V12H9.09441V13H11.5944ZM10.3444 10.75H9.09441V13.25H10.3444V10.75ZM10.3444 12.75V12H7.84441V12.75H10.3444ZM4.32169 14H9.09441V11.5H4.32169V14ZM3.07169 6.25V12.75H5.57169V6.25H3.07169ZM4.88985 5H4.32169V7.5H4.88985V5ZM6.13985 6.25V5H3.63985V6.25H6.13985Z" fill="currentColor" mask="url(#path-2-inside-1_1347_6182)"/>
</svg>
