<svg width="16" height="16" viewBox="0 0 16 16" fill="none" xmlns="http://www.w3.org/2000/svg">
  <path fill-rule="evenodd" clip-rule="evenodd" d="M10.3126 6.78132C10.3126 8.73161 8.73161 10.3126 6.78132 10.3126C4.83103 10.3126 3.25 8.73161 3.25 6.78132C3.25 4.83103 4.83103 3.25 6.78132 3.25C8.73161 3.25 10.3126 4.83103 10.3126 6.78132ZM9.69144 10.5753C8.88537 11.1945 7.87633 11.5626 6.78132 11.5626C4.14067 11.5626 2 9.42197 2 6.78132C2 4.14067 4.14067 2 6.78132 2C9.42197 2 11.5626 4.14067 11.5626 6.78132C11.5626 7.87633 11.1945 8.88537 10.5753 9.69144L13.9968 13.1129L13.1129 13.9968L9.69144 10.5753Z" fill="#19181f" />
</svg>
