<svg width="16" height="16" viewBox="0 0 16 16" fill="none" xmlns="http://www.w3.org/2000/svg">
<g id="icon">
<path d="M7.5 8.25L7.5 6.62" stroke="currentColor" stroke-width="1.25" stroke-miterlimit="10" stroke-linecap="square"/>
<path d="M8.125 10.62L8.125 9.995L6.875 9.995L6.875 10.62L8.125 10.62ZM8.125 11.25L8.125 10.62L6.875 10.62L6.875 11.25L8.125 11.25Z" fill="currentColor"/>
<path fill-rule="evenodd" clip-rule="evenodd" d="M7.50017 1.625C7.72346 1.625 7.92979 1.74412 8.04143 1.9375L14.1036 12.4375C14.2153 12.6309 14.2153 12.8691 14.1036 13.0625C13.992 13.2559 13.7856 13.375 13.5623 13.375H1.43799C1.2147 13.375 1.00837 13.2559 0.896722 13.0625C0.785077 12.8691 0.785077 12.6309 0.896722 12.4375L6.9589 1.9375C7.07055 1.74412 7.27688 1.625 7.50017 1.625ZM2.52052 12.125H12.4798L7.50017 3.5L2.52052 12.125Z" fill="currentColor"/>
</g>
</svg>
