<svg width="32" height="32" viewBox="0 0 32 32" fill="none" xmlns="http://www.w3.org/2000/svg">
<g id="icon" clip-path="url(#clip0_1660_6312)">
<path fill-rule="evenodd" clip-rule="evenodd" d="M2 16C2 23.732 8.26801 30 16 30C23.732 30 30 23.732 30 16C30 8.26801 23.732 2 16 2C8.26801 2 2 8.26801 2 16ZM16 0C7.16344 0 0 7.16344 0 16C0 24.8366 7.16344 32 16 32C24.8366 32 32 24.8366 32 16C32 7.16344 24.8366 0 16 0ZM17 14.1368V24.1368H15V14.1368H17ZM14.625 10.1371C14.625 10.8965 15.2406 11.5121 16 11.5121C16.7594 11.5121 17.375 10.8965 17.375 10.1371V9.99997C17.375 9.24057 16.7594 8.62497 16 8.62497C15.2406 8.62497 14.625 9.24057 14.625 9.99997V10.1371Z" fill="#19181f"/>
</g>
<defs>
<clipPath id="clip0_1660_6312">
<rect width="32" height="32" fill="white"/>
</clipPath>
</defs>
</svg>
